<svg width="60" height="60" viewBox="0 0 60 60" fill="none" xmlns="http://www.w3.org/2000/svg">
<g id="Frame" clip-path="url(#clip0_107_590)">
<path id="Vector" fill-rule="evenodd" clip-rule="evenodd" d="M49.5 27.8049C49.884 27.8049 50.268 27.6614 50.5605 27.3761C51.147 26.8039 51.147 25.879 50.5605 25.3068L40.8105 15.7946L31.0605 6.28242C30.474 5.71022 29.526 5.71022 28.9395 6.28242L17.766 17.1834V13.4663C17.766 13.0624 17.43 12.7346 17.016 12.7346H14.016C13.602 12.7346 13.266 13.0624 13.266 13.4663V21.5736L9.4395 25.3068C8.853 25.879 8.853 26.8039 9.4395 27.3761C9.73275 27.6622 10.1164 27.8053 10.5 27.8053V49.7561H9C7.758 49.7561 6.75 50.7395 6.75 51.9512C6.75 53.1629 7.758 54.1463 9 54.1463H51C52.242 54.1463 53.25 53.1629 53.25 51.9512C53.25 50.7395 52.242 49.7561 51 49.7561H49.5V27.8049Z" fill="#D9D9D9"/>
<g id="Mask group">
<mask id="mask0_107_590" style="mask-type:luminance" maskUnits="userSpaceOnUse" x="0" y="-1" width="60" height="63">
<g id="Group">
<path id="Vector_2" d="M59.25 -0.000366211H0.75V61.463H59.25V-0.000366211Z" fill="white"/>
<path id="Vector_3" fill-rule="evenodd" clip-rule="evenodd" d="M49.5 27.8049C49.884 27.8049 50.268 27.6614 50.5605 27.3761C51.147 26.8039 51.147 25.879 50.5605 25.3068L40.8105 15.7946L31.0605 6.28242C30.474 5.71022 29.526 5.71022 28.9395 6.28242L17.766 17.1834V13.4663C17.766 13.0624 17.43 12.7346 17.016 12.7346H14.016C13.602 12.7346 13.266 13.0624 13.266 13.4663V21.5736L9.4395 25.3068C8.853 25.879 8.853 26.8039 9.4395 27.3761C9.73275 27.6622 10.1164 27.8053 10.5 27.8053V49.7561H9C7.758 49.7561 6.75 50.7395 6.75 51.9512C6.75 53.1629 7.758 54.1463 9 54.1463H51C52.242 54.1463 53.25 53.1629 53.25 51.9512C53.25 50.7395 52.242 49.7561 51 49.7561H49.5V27.8049Z" fill="black"/>
</g>
</mask>
<g mask="url(#mask0_107_590)">
<path id="Vector_4" d="M49.5 27.8049V21.9512C46.1864 21.9512 43.5 24.5721 43.5 27.8049H49.5ZM17.766 17.1834H11.766C11.766 19.5509 13.2279 21.6855 15.4699 22.5915C17.712 23.4975 20.2926 22.9967 22.0086 21.3225L17.766 17.1834ZM13.266 21.5737L17.5086 25.7128C18.6339 24.6151 19.266 23.1262 19.266 21.5737H13.266ZM10.5 27.8053H16.5C16.5 24.5723 13.8137 21.9517 10.5 21.9517V27.8053ZM10.5 49.7561V55.6098C13.8137 55.6098 16.5 52.9889 16.5 49.7561H10.5ZM49.5 49.7561H43.5C43.5 52.9889 46.1864 55.6098 49.5 55.6098V49.7561ZM46.3179 23.237C47.1931 22.3829 48.354 21.9512 49.5 21.9512V33.6585C51.414 33.6585 53.3428 32.94 54.8031 31.5152L46.3179 23.237ZM46.3179 29.446C44.5612 27.7322 44.5612 24.9508 46.3179 23.237L54.8031 31.5152C57.7327 28.657 57.7327 24.0259 54.8031 21.1677L46.3179 29.446ZM36.5679 19.9338L46.3179 29.446L54.8031 21.1677L45.0531 11.6555L36.5679 19.9338ZM26.8179 10.4216L36.5679 19.9338L45.0531 11.6555L35.3031 2.14327L26.8179 10.4216ZM33.1821 10.4216C31.4255 12.1354 28.5745 12.1354 26.8179 10.4216L35.3031 2.14327C32.3735 -0.714913 27.6265 -0.714913 24.6969 2.14327L33.1821 10.4216ZM22.0086 21.3225L33.1821 10.4216L24.6969 2.14327L13.5234 13.0443L22.0086 21.3225ZM11.766 13.4663V17.1834H23.766V13.4663H11.766ZM17.016 18.5883C14.1163 18.5883 11.766 16.2953 11.766 13.4663H23.766C23.766 9.82955 20.7437 6.88098 17.016 6.88098V18.5883ZM14.016 18.5883H17.016V6.88098H14.016V18.5883ZM19.266 13.4663C19.266 16.2953 16.9156 18.5883 14.016 18.5883V6.88098C10.2883 6.88098 7.266 9.82955 7.266 13.4663H19.266ZM19.266 21.5737V13.4663H7.266V21.5737H19.266ZM13.6821 29.446L17.5086 25.7128L9.02336 17.4345L5.19686 21.1677L13.6821 29.446ZM13.6821 23.237C15.4388 24.9508 15.4388 27.7322 13.6821 29.446L5.19686 21.1677C2.26722 24.0259 2.26722 28.657 5.19686 31.5152L13.6821 23.237ZM10.5 21.9517C11.6472 21.9517 12.8082 22.3842 13.6821 23.237L5.19686 31.5152C6.65734 32.9402 8.58551 33.659 10.5 33.659V21.9517ZM16.5 49.7561V27.8053H4.5V49.7561H16.5ZM9 55.6098H10.5V43.9024H9V55.6098ZM12.75 51.9512C12.75 53.9723 11.0717 55.6098 9 55.6098V43.9024C4.44429 43.9024 0.75 47.5067 0.75 51.9512H12.75ZM9 48.2927C11.0717 48.2927 12.75 49.9301 12.75 51.9512H0.75C0.75 56.3958 4.44429 60 9 60V48.2927ZM51 48.2927H9V60H51V48.2927ZM47.25 51.9512C47.25 49.9301 48.9283 48.2927 51 48.2927V60C55.5556 60 59.25 56.3958 59.25 51.9512H47.25ZM51 55.6098C48.9283 55.6098 47.25 53.9723 47.25 51.9512H59.25C59.25 47.5067 55.5556 43.9024 51 43.9024V55.6098ZM49.5 55.6098H51V43.9024H49.5V55.6098ZM43.5 27.8049V49.7561H55.5V27.8049H43.5Z" fill="white"/>
</g>
</g>
<path id="Vector_5" d="M17.016 24.4419H14.016C13.602 24.4419 13.266 24.1141 13.266 23.7102V13.4663C13.266 13.0624 13.602 12.7346 14.016 12.7346H17.016C17.43 12.7346 17.766 13.0624 17.766 13.4663V23.7102C17.766 24.1141 17.43 24.4419 17.016 24.4419Z" fill="#A0041E"/>
<path id="Vector_6" d="M10.5 26.3415L30 7.31708L49.5 26.3415V51.2195H10.5V26.3415Z" fill="#FFE8B6"/>
<path id="Vector_7" d="M30 26.3415H31.5V49.7561H30V26.3415Z" fill="#FFCC4D"/>
<path id="Vector_8" d="M49.5 27.8049C49.116 27.8049 48.732 27.6614 48.4395 27.3761L30 9.38632L11.5605 27.3761C10.974 27.9483 10.026 27.9483 9.43951 27.3761C8.85301 26.8039 8.85301 25.879 9.43951 25.3068L28.9395 6.28242C29.526 5.71022 30.474 5.71022 31.0605 6.28242L50.5605 25.3068C51.147 25.879 51.147 26.8039 50.5605 27.3761C50.268 27.6614 49.884 27.8049 49.5 27.8049Z" fill="#66757F"/>
<path id="Vector_9" d="M30 27.8049C29.616 27.8049 29.232 27.6615 28.9395 27.3761C28.353 26.8039 28.353 25.879 28.9395 25.3068L38.6895 15.7946C39.276 15.2224 40.224 15.2224 40.8105 15.7946C41.397 16.3668 41.397 17.2917 40.8105 17.8639L31.0605 27.3761C30.768 27.6615 30.384 27.8049 30 27.8049Z" fill="#66757F"/>
<path id="Vector_10" d="M18 40.9756H24V49.7561H18V40.9756Z" fill="#C1694F"/>
<path id="Vector_11" d="M18 27.8049H24V33.6585H18V27.8049ZM36.75 27.8049H42.75V33.6585H36.75V27.8049ZM36.75 40.9756H42.75V46.8293H36.75V40.9756Z" fill="#55ACEE"/>
<path id="Vector_12" d="M53.25 51.9512C53.25 53.1629 52.242 54.1463 51 54.1463H9C7.758 54.1463 6.75 53.1629 6.75 51.9512C6.75 50.7395 7.758 49.7561 9 49.7561H51C52.242 49.7561 53.25 50.7395 53.25 51.9512Z" fill="#5C913B"/>
</g>
<defs>
<clipPath id="clip0_107_590">
<rect width="60" height="60" fill="white"/>
</clipPath>
</defs>
</svg>
