<svg width="60" height="60" viewBox="0 0 60 60" fill="none" xmlns="http://www.w3.org/2000/svg">
<g id="Frame" clip-path="url(#clip0_107_396)">
<path id="Vector" fill-rule="evenodd" clip-rule="evenodd" d="M51.6667 24.5454C50.7812 28.8926 48.484 31.7 46.2755 34.3992C44.3272 36.7803 42.4478 39.0772 41.6667 42.2727C38.99 53.2282 31.2217 54.5454 23.3333 54.5454C15.0987 54.5454 14.7515 50.351 14.2241 43.9777C13.9242 40.3539 13.5661 36.0258 11.6667 31.3636C6.66667 19.0909 7.14 9.68317 23.3333 6.81817C38.75 4.0909 54.39 11.1736 51.6667 24.5454Z" fill="#D9D9D9"/>
<g id="Mask group">
<mask id="mask0_107_396" style="mask-type:luminance" maskUnits="userSpaceOnUse" x="2" y="0" width="57" height="61">
<g id="Group">
<path id="Vector_2" d="M58.8668 0.785156H2.20016V60.7852H58.8668V0.785156Z" fill="white"/>
<path id="Vector_3" fill-rule="evenodd" clip-rule="evenodd" d="M51.6667 24.5455C50.7812 28.8926 48.484 31.7001 46.2755 34.3992C44.3272 36.7803 42.4478 39.0772 41.6667 42.2727C38.99 53.2282 31.2217 54.5455 23.3333 54.5455C15.0987 54.5455 14.7515 50.3511 14.2241 43.9777C13.9242 40.354 13.5661 36.0258 11.6667 31.3637C6.66667 19.0909 7.14 9.6832 23.3333 6.8182C38.75 4.09093 54.39 11.1737 51.6667 24.5455Z" fill="black"/>
</g>
</mask>
<g mask="url(#mask0_107_396)">
<path id="Vector_4" d="M51.8154 37.4337C54.047 34.7063 57.1007 31.0478 58.2427 25.4422L45.0907 23.6487C44.4615 26.7374 42.9212 28.6938 40.7357 31.3649L51.8154 37.4337ZM48.2039 43.3425C48.6924 41.3441 49.817 39.8757 51.8154 37.4337L40.7357 31.3649C38.8374 33.6848 36.2032 36.8103 35.1295 41.203L48.2039 43.3425ZM23.3334 60C27.5357 60 33.0864 59.695 38.0335 57.1192C43.2669 54.3945 46.6255 49.8026 48.2039 43.3425L35.1295 41.203C34.0312 45.6983 32.1674 47.2428 30.8752 47.9156C29.297 48.7373 27.0194 49.0909 23.3334 49.0909V60ZM7.57269 44.3462C7.69959 45.8794 7.83539 47.5728 8.11842 49.1234C8.4007 50.6697 8.89244 52.4801 9.9837 54.1837C11.1554 56.0127 12.9498 57.609 15.5171 58.6645C17.9477 59.6636 20.6382 60 23.3334 60V49.0909C21.9112 49.0909 21.4702 48.903 21.5034 48.9167C21.673 48.9863 21.8037 49.1357 21.7934 49.1196C21.7025 48.9777 21.494 48.5445 21.3055 47.512C21.1179 46.4835 21.0124 45.2625 20.8755 43.6091L7.57269 44.3462ZM5.34214 33.0885C6.94077 37.0125 7.27075 40.6975 7.57269 44.3462L20.8755 43.6091C20.5777 40.0103 20.1914 35.0391 17.9912 29.6388L5.34214 33.0885ZM21.9245 1.48685C12.2118 3.20527 5.55427 7.31852 3.15402 14.0316C1.02565 19.9842 2.77689 26.7921 5.34214 33.0885L17.9912 29.6388C15.5565 23.6625 15.0444 19.6301 15.951 17.0946C16.5858 15.3192 18.2619 13.2961 24.7424 12.1495L21.9245 1.48685ZM58.2427 25.4422C60.0425 16.6047 55.6452 9.4186 48.0872 5.15428C40.8419 1.06648 31.1344 -0.142405 21.9245 1.48685L24.7424 12.1495C30.9492 11.0515 36.7699 12.0204 40.5179 14.1351C43.9532 16.0732 46.0142 19.1144 45.0907 23.6487L58.2427 25.4422Z" fill="white"/>
</g>
</g>
<path id="Vector_5" d="M51.6667 24.5454C50 32.7273 43.3333 35.4545 41.6667 42.2727C38.99 53.2282 31.2217 54.5454 23.3333 54.5454C10.4167 54.5454 16.9067 44.2254 11.6667 31.3636C6.66667 19.0909 7.14 9.68317 23.3333 6.81817C38.75 4.0909 54.39 11.1736 51.6667 24.5454Z" fill="#FFDC5D"/>
<path id="Vector_6" d="M39.9983 35.4545C39.6817 35.4545 39.36 35.3795 39.075 35.2255C38.3083 34.8068 38.1017 33.9614 38.6133 33.3341C39.4317 32.3291 40.2267 31.5068 40.995 30.7118C43.32 28.3036 45 26.565 45 21.8182C45 18.8045 43.6967 16.3977 41.1283 14.6645C37.4733 12.2018 31.4167 11.2745 25.32 12.2468C22.2183 12.7418 19.9967 13.9036 18.53 15.7977C15.095 20.2336 17.1517 27.0382 17.1733 27.1064C17.4 27.8359 16.86 28.5791 15.9683 28.7632C15.0717 28.9527 14.1683 28.5068 13.9433 27.7773C13.8417 27.4527 11.52 19.755 15.715 14.3373C17.6717 11.8104 20.6883 10.2068 24.6833 9.56863C31.7283 8.44363 38.8433 9.58908 43.25 12.5577C46.5733 14.8023 48.3333 18.0041 48.3333 21.8182C48.3333 27.5114 46.0383 29.8868 43.6083 32.4041C42.8817 33.1568 42.13 33.9341 41.3867 34.8477C41.0667 35.2418 40.5367 35.4545 39.9983 35.4545Z" fill="#EF9645"/>
<path id="Vector_7" d="M19.3083 42.1595C18.6967 42.1595 18.1083 41.8841 17.815 41.4055C16.8967 39.9014 17.2033 38.685 17.6217 37.9295C18.53 36.2905 20.815 35.2909 22.495 34.9309C25.8233 34.02 27.4533 30.3764 26.565 27.8659C25.6117 25.1741 22.1467 24.2209 17.0633 25.245C16.18 25.4277 15.2667 24.9805 15.0467 24.2482C14.8267 23.5173 15.3717 22.7782 16.265 22.5982C24.455 20.9427 28.61 23.8445 29.765 27.1091C31.095 30.8659 28.825 36.0777 23.4417 37.545C22.4617 37.7577 21.0517 38.3427 20.655 39.0573C20.5417 39.2605 20.435 39.5973 20.7933 40.1864C21.205 40.86 20.8717 41.6795 20.0483 42.0164C19.8117 42.1132 19.5567 42.1595 19.3083 42.1595Z" fill="#EF9645"/>
</g>
<defs>
<clipPath id="clip0_107_396">
<rect width="60" height="60" fill="white"/>
</clipPath>
</defs>
</svg>
