<svg width="61" height="61" viewBox="0 0 61 61" fill="none" xmlns="http://www.w3.org/2000/svg">
<g id="Frame" clip-path="url(#clip0_107_444)">
<path id="Vector" fill-rule="evenodd" clip-rule="evenodd" d="M15.3295 18.2327C15.3295 11.454 22.0445 5.95993 30.3295 5.95993C38.6145 5.95993 45.3295 11.454 45.3295 18.2327V20.2781V26.4145H48.6628C48.6628 25.6617 49.4078 25.0508 50.3295 25.0508C51.2511 25.0508 51.9961 25.6617 51.9961 26.4145V29.1417C51.9961 37.5282 44.8793 44.5541 35.3171 46.3971C35.3255 46.5446 35.3295 46.7017 35.3295 46.869C35.3295 47.3884 35.2901 47.8911 35.2063 48.3671C43.027 48.8287 46.9961 50.425 46.9961 52.3236V55.0508H13.6628V52.3236C13.6628 50.425 17.632 48.8287 25.4526 48.3671C25.3686 47.8911 25.3295 47.3884 25.3295 46.869C25.3295 46.7017 25.3335 46.5446 25.3418 46.3971C15.7797 44.5541 8.66281 37.5282 8.66281 29.1417V26.4145C8.66281 25.6617 9.40948 25.0508 10.3295 25.0508C11.2495 25.0508 11.9961 25.6617 11.9961 26.4145H15.3295V20.2781V18.2327ZM11.9961 29.1417C11.9961 37.4245 20.2045 44.1418 30.3295 44.1418C40.4545 44.1418 48.6628 37.4245 48.6628 29.1417H45.3295C45.3295 35.9204 38.6145 41.4145 30.3295 41.4145C22.0445 41.4145 15.3295 35.9204 15.3295 29.1417H11.9961Z" fill="#D9D9D9"/>
<g id="Mask group">
<mask id="mask0_107_444" style="mask-type:luminance" maskUnits="userSpaceOnUse" x="1" y="0" width="58" height="61">
<g id="Group">
<path id="Vector_2" d="M58.6628 0.505371H1.99612V60.5054H58.6628V0.505371Z" fill="white"/>
<path id="Vector_3" fill-rule="evenodd" clip-rule="evenodd" d="M15.3294 18.2327C15.3294 11.454 22.0444 5.95993 30.3294 5.95993C38.6144 5.95993 45.3294 11.454 45.3294 18.2327V20.2781V26.4145H48.6628C48.6628 25.6617 49.4078 25.0508 50.3294 25.0508C51.2511 25.0508 51.9961 25.6617 51.9961 26.4145V29.1417C51.9961 37.5282 44.8793 44.5541 35.3171 46.3971C35.3254 46.5446 35.3294 46.7017 35.3294 46.869C35.3294 47.3884 35.2901 47.8911 35.2063 48.3671C43.0269 48.8287 46.9961 50.425 46.9961 52.3236V55.0508H13.6628V52.3236C13.6628 50.425 17.6319 48.8287 25.4526 48.3671C25.3686 47.8911 25.3294 47.3884 25.3294 46.869C25.3294 46.7017 25.3334 46.5446 25.3418 46.3971C15.7796 44.5541 8.66278 37.5282 8.66278 29.1417V26.4145C8.66278 25.6617 9.40945 25.0508 10.3294 25.0508C11.2494 25.0508 11.9961 25.6617 11.9961 26.4145H15.3294V20.2781V18.2327ZM11.9961 29.1417C11.9961 37.4245 20.2044 44.1418 30.3294 44.1418C40.4544 44.1418 48.6628 37.4245 48.6628 29.1417H45.3294C45.3294 35.9204 38.6144 41.4145 30.3294 41.4145C22.0444 41.4145 15.3294 35.9204 15.3294 29.1417H11.9961Z" fill="black"/>
</g>
</mask>
<g mask="url(#mask0_107_444)">
<path id="Vector_4" d="M45.3295 26.4145H38.6628C38.6628 29.4269 41.6476 31.869 45.3295 31.869V26.4145ZM48.6628 26.4145V31.869C52.3446 31.869 55.3295 29.4269 55.3295 26.4145H48.6628ZM35.3171 46.3971L33.7885 41.0879C30.6655 41.6898 28.5095 44.0264 28.6575 46.6486L35.3171 46.3971ZM35.2063 48.3671L28.6078 47.5885C28.3436 49.087 28.8526 50.608 30.0131 51.7874C31.1735 52.9669 32.881 53.6986 34.7266 53.8075L35.2063 48.3671ZM46.9961 55.0508V60.5054C50.678 60.5054 53.6628 58.0632 53.6628 55.0508H46.9961ZM13.6628 55.0508H6.99612C6.99612 58.0632 9.98089 60.5054 13.6628 60.5054V55.0508ZM25.4526 48.3671L25.9321 53.8075C27.7778 53.6986 29.485 52.9669 30.6455 51.7876C31.8058 50.6084 32.315 49.0876 32.0511 47.5891L25.4526 48.3671ZM25.3418 46.3971L32.0015 46.6484C32.1493 44.0262 29.9933 41.6898 26.8705 41.0879L25.3418 46.3971ZM11.9961 26.4145H5.32946C5.32946 29.4269 8.31422 31.869 11.9961 31.869V26.4145ZM15.3295 26.4145V31.869C19.0113 31.869 21.9961 29.4269 21.9961 26.4145H15.3295ZM11.9961 29.1417V23.6872C8.31422 23.6872 5.32946 26.1293 5.32946 29.1417H11.9961ZM48.6628 29.1417H55.3295C55.3295 26.1293 52.3446 23.6872 48.6628 23.6872V29.1417ZM45.3295 29.1417V23.6872C41.6476 23.6872 38.6628 26.1293 38.6628 29.1417H45.3295ZM15.3295 29.1417H21.9961C21.9961 26.1293 19.0113 23.6872 15.3295 23.6872V29.1417ZM30.3295 0.505371C18.3626 0.505371 8.66279 8.44154 8.66279 18.2326H21.9961C21.9961 14.4664 25.7263 11.4145 30.3295 11.4145V0.505371ZM51.9961 18.2326C51.9961 8.44154 42.2963 0.505371 30.3295 0.505371V11.4145C34.9326 11.4145 38.6628 14.4664 38.6628 18.2326H51.9961ZM51.9961 20.2781V18.2326H38.6628V20.2781H51.9961ZM51.9961 26.4145V20.2781H38.6628V26.4145H51.9961ZM48.6628 20.9599H45.3295V31.869H48.6628V20.9599ZM50.3295 19.5963C45.7216 19.5963 41.9961 22.6529 41.9961 26.4145H55.3295C55.3295 28.6706 53.094 30.5054 50.3295 30.5054V19.5963ZM58.6628 26.4145C58.6628 22.6529 54.9373 19.5963 50.3295 19.5963V30.5054C47.565 30.5054 45.3295 28.6706 45.3295 26.4145H58.6628ZM58.6628 29.1417V26.4145H45.3295V29.1417H58.6628ZM36.8456 51.7064C49.3506 49.2961 58.6628 40.1156 58.6628 29.1417H45.3295C45.3295 34.9409 40.408 39.8121 33.7885 41.0879L36.8456 51.7064ZM41.9961 46.869C41.9961 46.6302 41.9903 46.3885 41.9766 46.1456L28.6575 46.6486C28.6605 46.7009 28.6628 46.7733 28.6628 46.869H41.9961ZM41.8046 49.1457C41.9405 48.3753 41.9961 47.6092 41.9961 46.869H28.6628C28.6628 47.1676 28.6398 47.4068 28.6078 47.5885L41.8046 49.1457ZM53.6628 52.3236C53.6628 47.8515 49.098 45.652 46.6708 44.7967C43.7293 43.7602 39.946 43.1781 35.6858 42.9267L34.7266 53.8075C38.2873 54.0176 40.399 54.4645 41.3971 54.8161C41.8951 54.9916 41.7663 55.0226 41.4305 54.7347C41.019 54.3818 40.3295 53.5488 40.3295 52.3236H53.6628ZM53.6628 55.0508V52.3236H40.3295V55.0508H53.6628ZM13.6628 60.5054H46.9961V49.5963H13.6628V60.5054ZM6.99612 52.3236V55.0508H20.3295V52.3236H6.99612ZM24.973 42.9267C20.713 43.1781 16.9296 43.7602 13.988 44.7967C11.5609 45.652 6.99612 47.8515 6.99612 52.3236H20.3295C20.3295 53.5488 19.64 54.3818 19.2285 54.7347C18.8926 55.0226 18.7638 54.9916 19.2618 54.8161C20.26 54.4645 22.3716 54.0176 25.9321 53.8075L24.973 42.9267ZM18.6628 46.869C18.6628 47.6089 18.7183 48.3747 18.8541 49.1451L32.0511 47.5891C32.0191 47.4074 31.9961 47.1681 31.9961 46.869H18.6628ZM18.6823 46.1459C18.6686 46.3886 18.6628 46.6304 18.6628 46.869H31.9961C31.9961 46.7731 31.9985 46.7007 32.0015 46.6484L18.6823 46.1459ZM1.99612 29.1417C1.99612 40.1156 11.3084 49.2961 23.8133 51.7064L26.8705 41.0879C20.251 39.8121 15.3295 34.9409 15.3295 29.1417H1.99612ZM1.99612 26.4145V29.1417H15.3295V26.4145H1.99612ZM10.3295 19.5963C5.72756 19.5963 1.99612 22.6493 1.99612 26.4145H15.3295C15.3295 28.6741 13.0914 30.5054 10.3295 30.5054V19.5963ZM18.6628 26.4145C18.6628 22.6493 14.9314 19.5963 10.3295 19.5963V30.5054C7.56756 30.5054 5.32946 28.6741 5.32946 26.4145H18.6628ZM15.3295 20.9599H11.9961V31.869H15.3295V20.9599ZM8.66279 20.2781V26.4145H21.9961V20.2781H8.66279ZM8.66279 18.2326V20.2781H21.9961V18.2326H8.66279ZM30.3295 38.6872C23.8868 38.6872 18.6628 34.4123 18.6628 29.1417H5.32946C5.32946 40.4366 16.5222 49.5963 30.3295 49.5963V38.6872ZM41.9961 29.1417C41.9961 34.4123 36.7721 38.6872 30.3295 38.6872V49.5963C44.1368 49.5963 55.3295 40.4366 55.3295 29.1417H41.9961ZM45.3295 34.5963H48.6628V23.6872H45.3295V34.5963ZM30.3295 46.869C42.2963 46.869 51.9961 38.9328 51.9961 29.1417H38.6628C38.6628 32.908 34.9326 35.9599 30.3295 35.9599V46.869ZM8.66279 29.1417C8.66279 38.9328 18.3626 46.869 30.3295 46.869V35.9599C25.7263 35.9599 21.9961 32.908 21.9961 29.1417H8.66279ZM11.9961 34.5963H15.3295V23.6872H11.9961V34.5963Z" fill="white"/>
</g>
</g>
<path id="Vector_5" d="M10.3295 26.4145H50.3295V29.1417H10.3295V26.4145ZM35.3295 46.869C35.3295 49.8799 34.0095 52.3236 30.3295 52.3236C26.6478 52.3236 25.3295 49.8799 25.3295 46.869C25.3295 43.8581 26.6478 44.1417 30.3295 44.1417C34.0095 44.1417 35.3295 43.8581 35.3295 46.869Z" fill="#292F33"/>
<path id="Vector_6" d="M30.3295 48.2326C19.2845 48.2326 13.6628 50.064 13.6628 52.3235V55.0508H46.9961V52.3235C46.9961 50.064 41.3745 48.2326 30.3295 48.2326Z" fill="#66757F"/>
<path id="Vector_7" d="M30.3295 5.95993C22.0445 5.95993 15.3295 11.454 15.3295 18.2327V27.7781H45.3295V18.2327C45.3295 11.454 38.6145 5.95993 30.3295 5.95993Z" fill="#99AAB5"/>
<path id="Vector_8" d="M26.1628 11.4145C27.5435 11.4145 28.6628 10.4987 28.6628 9.369C28.6628 8.23932 27.5435 7.32355 26.1628 7.32355C24.7821 7.32355 23.6628 8.23932 23.6628 9.369C23.6628 10.4987 24.7821 11.4145 26.1628 11.4145Z" fill="#292F33"/>
<path id="Vector_9" d="M34.4961 11.4145C35.8768 11.4145 36.9961 10.4987 36.9961 9.369C36.9961 8.23932 35.8768 7.32355 34.4961 7.32355C33.1155 7.32355 31.9961 8.23932 31.9961 9.369C31.9961 10.4987 33.1155 11.4145 34.4961 11.4145Z" fill="#292F33"/>
<path id="Vector_10" d="M29.4961 16.869C30.8768 16.869 31.9961 15.9532 31.9961 14.8236C31.9961 13.6939 30.8768 12.7781 29.4961 12.7781C28.1155 12.7781 26.9961 13.6939 26.9961 14.8236C26.9961 15.9532 28.1155 16.869 29.4961 16.869Z" fill="#292F33"/>
<path id="Vector_11" d="M37.8295 16.869C39.2101 16.869 40.3295 15.9532 40.3295 14.8236C40.3295 13.6939 39.2101 12.7781 37.8295 12.7781C36.4488 12.7781 35.3295 13.6939 35.3295 14.8236C35.3295 15.9532 36.4488 16.869 37.8295 16.869Z" fill="#292F33"/>
<path id="Vector_12" d="M21.1628 16.869C22.5435 16.869 23.6628 15.9532 23.6628 14.8236C23.6628 13.6939 22.5435 12.7781 21.1628 12.7781C19.7821 12.7781 18.6628 13.6939 18.6628 14.8236C18.6628 15.9532 19.7821 16.869 21.1628 16.869Z" fill="#292F33"/>
<path id="Vector_13" d="M26.1628 22.3235C27.5435 22.3235 28.6628 21.4077 28.6628 20.2781C28.6628 19.1485 27.5435 18.2326 26.1628 18.2326C24.7821 18.2326 23.6628 19.1485 23.6628 20.2781C23.6628 21.4077 24.7821 22.3235 26.1628 22.3235Z" fill="#292F33"/>
<path id="Vector_14" d="M17.8295 22.3235C19.2101 22.3235 20.3295 21.4077 20.3295 20.2781C20.3295 19.1485 19.2101 18.2326 17.8295 18.2326C16.4488 18.2326 15.3295 19.1485 15.3295 20.2781C15.3295 21.4077 16.4488 22.3235 17.8295 22.3235Z" fill="#292F33"/>
<path id="Vector_15" d="M34.4961 22.3235C35.8768 22.3235 36.9961 21.4077 36.9961 20.2781C36.9961 19.1485 35.8768 18.2326 34.4961 18.2326C33.1155 18.2326 31.9961 19.1485 31.9961 20.2781C31.9961 21.4077 33.1155 22.3235 34.4961 22.3235Z" fill="#292F33"/>
<path id="Vector_16" d="M42.8295 22.3235C44.2101 22.3235 45.3295 21.4077 45.3295 20.2781C45.3295 19.1485 44.2101 18.2326 42.8295 18.2326C41.4488 18.2326 40.3295 19.1485 40.3295 20.2781C40.3295 21.4077 41.4488 22.3235 42.8295 22.3235Z" fill="#292F33"/>
<path id="Vector_17" d="M29.4961 27.7781C30.8768 27.7781 31.9961 26.8623 31.9961 25.7326C31.9961 24.603 30.8768 23.6872 29.4961 23.6872C28.1155 23.6872 26.9961 24.603 26.9961 25.7326C26.9961 26.8623 28.1155 27.7781 29.4961 27.7781Z" fill="#292F33"/>
<path id="Vector_18" d="M37.8295 27.7781C39.2101 27.7781 40.3295 26.8623 40.3295 25.7326C40.3295 24.603 39.2101 23.6872 37.8295 23.6872C36.4488 23.6872 35.3295 24.603 35.3295 25.7326C35.3295 26.8623 36.4488 27.7781 37.8295 27.7781Z" fill="#292F33"/>
<path id="Vector_19" d="M21.1628 27.7781C22.5435 27.7781 23.6628 26.8623 23.6628 25.7326C23.6628 24.603 22.5435 23.6872 21.1628 23.6872C19.7821 23.6872 18.6628 24.603 18.6628 25.7326C18.6628 26.8623 19.7821 27.7781 21.1628 27.7781Z" fill="#292F33"/>
<path id="Vector_20" d="M15.3295 26.499V29.1418C15.3295 35.9204 22.0445 41.4145 30.3295 41.4145C38.6145 41.4145 45.3295 35.9204 45.3295 29.1418V26.499H15.3295Z" fill="#66757F"/>
<path id="Vector_21" d="M50.3295 25.0508C49.4078 25.0508 48.6628 25.6617 48.6628 26.4144V29.1417C48.6628 37.4244 40.4545 44.1417 30.3295 44.1417C20.2045 44.1417 11.9961 37.4244 11.9961 29.1417V26.4144C11.9961 25.6617 11.2495 25.0508 10.3295 25.0508C9.40948 25.0508 8.66281 25.6617 8.66281 26.4144V29.1417C8.66281 38.9326 18.3628 46.869 30.3295 46.869C42.2961 46.869 51.9961 38.9326 51.9961 29.1417V26.4144C51.9961 25.6617 51.2511 25.0508 50.3295 25.0508Z" fill="#66757F"/>
</g>
<defs>
<clipPath id="clip0_107_444">
<rect width="60" height="60" fill="white" transform="translate(0.329468 0.505371)"/>
</clipPath>
</defs>
</svg>
