<svg width="60" height="60" viewBox="0 0 60 60" fill="none" xmlns="http://www.w3.org/2000/svg">
<g id="Frame" clip-path="url(#clip0_107_560)">
<path id="Vector" d="M51.8182 25.9091H47.2336C46.7918 24.0423 46.0554 22.2941 45.0763 20.7082L48.3204 17.4641C49.3854 16.3991 49.3854 14.6713 48.3204 13.6063L46.3923 11.6782C45.3273 10.6132 43.6009 10.6132 42.5359 11.6782L39.2918 14.9223C37.7045 13.9432 35.9577 13.2082 34.0909 12.7663V8.1818C34.0909 6.67635 32.8691 5.45453 31.3636 5.45453H28.6363C27.1309 5.45453 25.9091 6.67635 25.9091 8.1818V12.7663C24.0423 13.2082 22.2941 13.9445 20.7082 14.9236L17.4654 11.6795C16.4004 10.6145 14.6727 10.6145 13.6091 11.6795L11.6795 13.6077C10.6145 14.6727 10.6145 16.4004 11.6782 17.4654L14.9223 20.7095C13.9432 22.2954 13.2082 24.0436 12.7663 25.9091H8.1818C6.67635 25.9091 5.45453 27.1309 5.45453 28.6363V31.3636C5.45453 32.8691 6.67635 34.0909 8.1818 34.0909H12.7663C13.2082 35.9563 13.9445 37.7045 14.9236 39.2904L11.6795 42.5345C10.6159 43.5982 10.6159 45.3273 11.6809 46.3923L13.6091 48.3204C14.6727 49.3841 16.4004 49.3841 17.4654 48.3204L20.7095 45.0763C22.2954 46.0568 24.0436 46.7918 25.9104 47.2336V51.8182C25.9104 53.3236 27.1323 54.5454 28.6377 54.5454H31.365C32.8704 54.5454 34.0923 53.3236 34.0923 51.8182V47.2336C35.9577 46.7918 37.7059 46.0554 39.2918 45.0763L42.5359 48.3204C43.6009 49.3854 45.3273 49.3854 46.3923 48.3204L48.3204 46.3923C49.3854 45.3273 49.3854 43.5995 48.3204 42.5345L45.0763 39.2904C46.0568 37.7045 46.7918 35.9563 47.2336 34.0895H51.8182C53.3236 34.0895 54.5454 32.8677 54.5454 31.3623V28.635C54.5454 27.1309 53.3236 25.9091 51.8182 25.9091ZM30 40.9091C23.9754 40.9091 19.0909 36.0245 19.0909 30C19.0909 23.9754 23.9754 19.0909 30 19.0909C36.0245 19.0909 40.9091 23.9754 40.9091 30C40.9091 36.0245 36.0245 40.9091 30 40.9091Z" fill="#D9D9D9"/>
<g id="Mask group">
<mask id="mask0_107_560" style="mask-type:luminance" maskUnits="userSpaceOnUse" x="0" y="0" width="60" height="60">
<g id="Group">
<path id="Vector_2" d="M60 0H0V60H60V0Z" fill="white"/>
<path id="Vector_3" d="M51.8182 25.9091H47.2336C46.7918 24.0423 46.0554 22.2941 45.0763 20.7082L48.3204 17.4641C49.3854 16.3991 49.3854 14.6713 48.3204 13.6063L46.3923 11.6782C45.3273 10.6132 43.6009 10.6132 42.5359 11.6782L39.2918 14.9223C37.7045 13.9432 35.9577 13.2082 34.0909 12.7663V8.1818C34.0909 6.67635 32.8691 5.45453 31.3636 5.45453H28.6363C27.1309 5.45453 25.9091 6.67635 25.9091 8.1818V12.7663C24.0423 13.2082 22.2941 13.9445 20.7082 14.9236L17.4654 11.6795C16.4004 10.6145 14.6727 10.6145 13.6091 11.6795L11.6795 13.6077C10.6145 14.6727 10.6145 16.4004 11.6782 17.4654L14.9223 20.7095C13.9432 22.2954 13.2082 24.0436 12.7663 25.9091H8.1818C6.67635 25.9091 5.45453 27.1309 5.45453 28.6363V31.3636C5.45453 32.8691 6.67635 34.0909 8.1818 34.0909H12.7663C13.2082 35.9563 13.9445 37.7045 14.9236 39.2904L11.6795 42.5345C10.6159 43.5982 10.6159 45.3273 11.6809 46.3923L13.6091 48.3204C14.6727 49.3841 16.4004 49.3841 17.4654 48.3204L20.7095 45.0763C22.2954 46.0568 24.0436 46.7918 25.9104 47.2336V51.8182C25.9104 53.3236 27.1323 54.5454 28.6377 54.5454H31.365C32.8704 54.5454 34.0923 53.3236 34.0923 51.8182V47.2336C35.9577 46.7918 37.7059 46.0554 39.2918 45.0763L42.5359 48.3204C43.6009 49.3854 45.3273 49.3854 46.3923 48.3204L48.3204 46.3923C49.3854 45.3273 49.3854 43.5995 48.3204 42.5345L45.0763 39.2904C46.0568 37.7045 46.7918 35.9563 47.2336 34.0895H51.8182C53.3236 34.0895 54.5454 32.8677 54.5454 31.3623V28.635C54.5454 27.1309 53.3236 25.9091 51.8182 25.9091ZM30 40.9091C23.9754 40.9091 19.0909 36.0245 19.0909 30C19.0909 23.9754 23.9754 19.0909 30 19.0909C36.0245 19.0909 40.9091 23.9754 40.9091 30C40.9091 36.0245 36.0245 40.9091 30 40.9091Z" fill="black"/>
</g>
</mask>
<g mask="url(#mask0_107_560)">
<path id="Vector_4" d="M47.2336 25.9091L41.9257 27.1653C42.5081 29.6258 44.705 31.3636 47.2336 31.3636V25.9091ZM45.0764 20.7082L41.2195 16.8513C39.4313 18.6393 39.1066 21.4219 40.4351 23.5736L45.0764 20.7082ZM39.2918 14.9223L36.4282 19.5646C38.5797 20.8919 41.3613 20.5668 43.1487 18.7792L39.2918 14.9223ZM34.0909 12.7664H28.6364C28.6364 15.295 30.3742 17.4919 32.8347 18.0743L34.0909 12.7664ZM25.9091 12.7664L27.1653 18.0743C29.6258 17.4919 31.3636 15.295 31.3636 12.7664H25.9091ZM20.7082 14.9236L16.8505 18.7797C18.6385 20.5685 21.4215 20.8935 23.5736 19.5649L20.7082 14.9236ZM13.6091 11.6795L17.4646 15.5378L17.4685 15.534L13.6091 11.6795ZM11.6795 13.6077L7.82396 9.74941L7.8226 9.75078L11.6795 13.6077ZM11.6782 17.4655L7.81876 21.3199L7.82123 21.3224L11.6782 17.4655ZM14.9223 20.7095L19.5635 23.575C20.892 21.4233 20.5673 18.6406 18.7792 16.8526L14.9223 20.7095ZM12.7664 25.9091V31.3636C15.2945 31.3636 17.4914 29.6264 18.074 27.1662L12.7664 25.9091ZM12.7664 34.0909L18.074 32.8338C17.4914 30.3736 15.2945 28.6364 12.7664 28.6364V34.0909ZM14.9236 39.2905L18.7805 43.1474C20.5687 41.3594 20.8934 38.5767 19.5649 36.425L14.9236 39.2905ZM17.4655 48.3205L21.3199 52.1798L21.3224 52.1774L17.4655 48.3205ZM20.7095 45.0764L23.5778 40.4369C21.4259 39.1065 18.6416 39.4305 16.8526 41.2195L20.7095 45.0764ZM25.9105 47.2336H31.365C31.365 44.705 29.6272 42.5081 27.1666 41.9257L25.9105 47.2336ZM34.0923 47.2336L32.8351 41.926C30.375 42.5086 28.6377 44.7055 28.6377 47.2336H34.0923ZM39.2918 45.0764L43.1487 41.2195C41.3607 39.4313 38.5781 39.1066 36.4264 40.4351L39.2918 45.0764ZM45.0764 39.2905L40.4369 36.4222C39.1065 38.5741 39.4305 41.3584 41.2195 43.1474L45.0764 39.2905ZM47.2336 34.0895V28.635C44.705 28.635 42.5081 30.3728 41.9257 32.8334L47.2336 34.0895ZM51.8182 20.4545H47.2336V31.3636H51.8182V20.4545ZM52.5416 24.6529C51.962 22.2044 50.9966 19.9144 49.7176 17.8428L40.4351 23.5736C41.1143 24.6738 41.6216 25.8802 41.9257 27.1653L52.5416 24.6529ZM48.9333 24.5651L52.1774 21.321L44.4635 13.6071L41.2195 16.8513L48.9333 24.5651ZM52.1774 21.321C55.3725 18.1259 55.3725 12.9446 52.1774 9.74941L44.4635 17.4633C43.3984 16.3981 43.3984 14.6723 44.4635 13.6071L52.1774 21.321ZM52.1774 9.74941L50.2492 7.82123L42.5354 15.5351L44.4635 17.4633L52.1774 9.74941ZM50.2492 7.82123C47.054 4.62611 41.8741 4.62611 38.679 7.82123L46.3928 15.5351C45.3277 16.6002 43.6005 16.6002 42.5354 15.5351L50.2492 7.82123ZM38.679 7.82123L35.4349 11.0653L43.1487 18.7792L46.3928 15.5351L38.679 7.82123ZM42.1555 10.2799C40.0825 9.0012 37.7944 8.03764 35.3471 7.45845L32.8347 18.0743C34.121 18.3787 35.3266 18.8851 36.4282 19.5646L42.1555 10.2799ZM39.5455 12.7664V8.18182H28.6364V12.7664H39.5455ZM39.5455 8.18182C39.5455 3.6639 35.8815 0 31.3636 0V10.9091C29.8567 10.9091 28.6364 9.68883 28.6364 8.18182H39.5455ZM31.3636 0H28.6364V10.9091H31.3636V0ZM28.6364 0C24.1185 0 20.4545 3.6639 20.4545 8.18182H31.3636C31.3636 9.68883 30.1433 10.9091 28.6364 10.9091V0ZM20.4545 8.18182V12.7664H31.3636V8.18182H20.4545ZM24.6529 7.45845C22.2044 8.03793 19.9144 9.00338 17.8428 10.2823L23.5736 19.5649C24.6738 18.8857 25.8802 18.3784 27.1653 18.0743L24.6529 7.45845ZM24.5659 11.0675L21.3232 7.82341L13.6077 15.5356L16.8505 18.7797L24.5659 11.0675ZM21.3232 7.82341C18.1294 4.62965 12.9454 4.62528 9.74967 7.82508L17.4685 15.534C16.4 16.6038 14.6715 16.5994 13.6077 15.5356L21.3232 7.82341ZM9.7535 7.82123L7.82396 9.74941L15.5351 17.466L17.4646 15.5378L9.7535 7.82123ZM7.8226 9.75078C4.62788 12.9455 4.62788 18.1249 7.81876 21.3199L15.5375 13.611C16.6012 14.676 16.6012 16.3999 15.5365 17.4646L7.8226 9.75078ZM7.82123 21.3224L11.0653 24.5665L18.7792 16.8526L15.5351 13.6085L7.82123 21.3224ZM10.281 17.8441C9.00082 19.9177 8.03757 22.2076 7.45865 24.652L18.074 27.1662C18.3788 25.8796 18.8855 24.6732 19.5635 23.575L10.281 17.8441ZM12.7664 20.4545H8.18182V31.3636H12.7664V20.4545ZM8.18182 20.4545C3.6639 20.4545 0 24.1185 0 28.6364H10.9091C10.9091 30.1433 9.68883 31.3636 8.18182 31.3636V20.4545ZM0 28.6364V31.3636H10.9091V28.6364H0ZM0 31.3636C0 35.8815 3.6639 39.5455 8.18182 39.5455V28.6364C9.68883 28.6364 10.9091 29.8567 10.9091 31.3636H0ZM8.18182 39.5455H12.7664V28.6364H8.18182V39.5455ZM7.45865 35.348C8.03813 37.7947 9.00349 40.0844 10.2823 42.1559L19.5649 36.425C18.8855 35.3247 18.3783 34.118 18.074 32.8338L7.45865 35.348ZM11.0667 35.4335L7.8226 38.6776L15.5365 46.3915L18.7805 43.1474L11.0667 35.4335ZM7.8226 38.6776C4.62705 41.8732 4.63061 47.0558 7.82396 50.2492L15.5378 42.5354C16.6012 43.5987 16.6047 45.3232 15.5365 46.3915L7.8226 38.6776ZM7.82396 50.2492L9.75214 52.1774L17.466 44.4635L15.5378 42.5354L7.82396 50.2492ZM9.75214 52.1774C12.9473 55.3725 18.1267 55.369 21.3199 52.1798L13.611 44.4611C14.6742 43.3992 16.3981 43.3957 17.466 44.4635L9.75214 52.1774ZM21.3224 52.1774L24.5665 48.9333L16.8526 41.2195L13.6085 44.4635L21.3224 52.1774ZM17.8413 49.7159C19.9167 50.9989 22.208 51.9626 24.6543 52.5416L27.1666 41.9257C25.8792 41.621 24.6742 41.1147 23.5778 40.4369L17.8413 49.7159ZM20.4559 47.2336V51.8182H31.365V47.2336H20.4559ZM20.4559 51.8182C20.4559 56.336 24.1199 60 28.6377 60V49.0909C30.1447 49.0909 31.365 50.3112 31.365 51.8182H20.4559ZM28.6377 60H31.365V49.0909H28.6377V60ZM31.365 60C35.8829 60 39.5468 56.336 39.5468 51.8182H28.6377C28.6377 50.3112 29.858 49.0909 31.365 49.0909V60ZM39.5468 51.8182V47.2336H28.6377V51.8182H39.5468ZM35.3494 52.5413C37.796 51.9619 40.0857 50.9965 42.1572 49.7176L36.4264 40.4351C35.3261 41.1145 34.1194 41.6217 32.8351 41.926L35.3494 52.5413ZM35.4349 48.9333L38.679 52.1774L46.3928 44.4635L43.1487 41.2195L35.4349 48.9333ZM38.679 52.1774C41.8741 55.3725 47.054 55.3725 50.2492 52.1774L42.5354 44.4635C43.6005 43.3984 45.3277 43.3984 46.3928 44.4635L38.679 52.1774ZM50.2492 52.1774L52.1774 50.2492L44.4635 42.5354L42.5354 44.4635L50.2492 52.1774ZM52.1774 50.2492C55.3725 47.054 55.3725 41.8728 52.1774 38.6776L44.4635 46.3915C43.3984 45.3263 43.3984 43.6005 44.4635 42.5354L52.1774 50.2492ZM52.1774 38.6776L48.9333 35.4335L41.2195 43.1474L44.4635 46.3915L52.1774 38.6776ZM49.7159 42.1587C50.9989 40.0833 51.9626 37.792 52.5416 35.3457L41.9257 32.8334C41.621 34.1208 41.1147 35.3258 40.4369 36.4222L49.7159 42.1587ZM47.2336 39.5441H51.8182V28.635H47.2336V39.5441ZM51.8182 39.5441C56.336 39.5441 60 35.8801 60 31.3623H49.0909C49.0909 29.8553 50.3112 28.635 51.8182 28.635V39.5441ZM60 31.3623V28.635H49.0909V31.3623H60ZM60 28.635C60 24.1167 56.3343 20.4545 51.8182 20.4545V31.3636C50.313 31.3636 49.0909 30.1451 49.0909 28.635H60ZM30 35.4545C26.9879 35.4545 24.5455 33.0121 24.5455 30H13.6364C13.6364 39.037 20.963 46.3636 30 46.3636V35.4545ZM24.5455 30C24.5455 26.9879 26.9879 24.5455 30 24.5455V13.6364C20.963 13.6364 13.6364 20.963 13.6364 30H24.5455ZM30 24.5455C33.0121 24.5455 35.4545 26.9879 35.4545 30H46.3636C46.3636 20.963 39.037 13.6364 30 13.6364V24.5455ZM35.4545 30C35.4545 33.0121 33.0121 35.4545 30 35.4545V46.3636C39.037 46.3636 46.3636 39.037 46.3636 30H35.4545Z" fill="white"/>
</g>
</g>
<path id="Vector_5" d="M51.8182 25.9091H47.2336C46.7918 24.0423 46.0554 22.2941 45.0763 20.7082L48.3204 17.4641C49.3854 16.3991 49.3854 14.6713 48.3204 13.6063L46.3923 11.6782C45.3273 10.6132 43.6009 10.6132 42.5359 11.6782L39.2918 14.9223C37.7045 13.9432 35.9577 13.2082 34.0909 12.7663V8.1818C34.0909 6.67635 32.8691 5.45453 31.3636 5.45453H28.6363C27.1309 5.45453 25.9091 6.67635 25.9091 8.1818V12.7663C24.0423 13.2082 22.2941 13.9445 20.7082 14.9236L17.4654 11.6795C16.4004 10.6145 14.6727 10.6145 13.6091 11.6795L11.6795 13.6077C10.6145 14.6727 10.6145 16.4004 11.6782 17.4654L14.9223 20.7095C13.9432 22.2954 13.2082 24.0436 12.7663 25.9091H8.1818C6.67635 25.9091 5.45453 27.1309 5.45453 28.6363V31.3636C5.45453 32.8691 6.67635 34.0909 8.1818 34.0909H12.7663C13.2082 35.9563 13.9445 37.7045 14.9236 39.2904L11.6795 42.5345C10.6159 43.5982 10.6159 45.3273 11.6809 46.3923L13.6091 48.3204C14.6727 49.3841 16.4004 49.3841 17.4654 48.3204L20.7095 45.0763C22.2954 46.0568 24.0436 46.7918 25.9104 47.2336V51.8182C25.9104 53.3236 27.1323 54.5454 28.6377 54.5454H31.365C32.8704 54.5454 34.0923 53.3236 34.0923 51.8182V47.2336C35.9577 46.7918 37.7059 46.0554 39.2918 45.0763L42.5359 48.3204C43.6009 49.3854 45.3273 49.3854 46.3923 48.3204L48.3204 46.3923C49.3854 45.3273 49.3854 43.5995 48.3204 42.5345L45.0763 39.2904C46.0568 37.7045 46.7918 35.9563 47.2336 34.0895H51.8182C53.3236 34.0895 54.5454 32.8677 54.5454 31.3623V28.635C54.5454 27.1309 53.3236 25.9091 51.8182 25.9091ZM30 40.9091C23.9754 40.9091 19.0909 36.0245 19.0909 30C19.0909 23.9754 23.9754 19.0909 30 19.0909C36.0245 19.0909 40.9091 23.9754 40.9091 30C40.9091 36.0245 36.0245 40.9091 30 40.9091Z" fill="#66757F"/>
</g>
<defs>
<clipPath id="clip0_107_560">
<rect width="60" height="60" fill="white"/>
</clipPath>
</defs>
</svg>
